<?xml version="1.0" encoding="UTF-8" standalone="no"?>
<!DOCTYPE svg PUBLIC "-//W3C//DTD SVG 1.1//EN" "http://www.w3.org/Graphics/SVG/1.1/DTD/svg11.dtd">
<svg version="1.1" xmlns="http://www.w3.org/2000/svg" xmlns:xlink="http://www.w3.org/1999/xlink" preserveAspectRatio="xMidYMid meet" viewBox="0 0 640 640" width="640" height="640"><defs><path d="M-2.61 -19.45L514.61 -19.45L514.61 531.45L-2.61 531.45L-2.61 -19.45Z" id="c7xPEXPsE"></path><path d="M384.9 0C359.12 0 152.88 0 127.1 0C96.11 0 66.43 13.22 45.66 36.26C24.88 59.34 14.79 90.3 18 121.21C21.03 150.44 45.29 384.27 48.32 413.5C54.15 469.65 101.05 512 157.42 512C177.14 512 334.86 512 354.58 512C410.95 512 457.85 469.65 463.68 413.5C466.71 384.27 490.97 150.44 494 121.21C497.21 90.3 487.12 59.34 466.34 36.26C445.57 13.22 415.89 0 384.9 0ZM433.84 410.4C429.6 451.2 395.53 481.98 354.58 481.98C349.01 481.98 321.15 481.98 271 481.98C271 363 271 296.9 271 283.68C271 275.39 264.28 268.67 256 268.67C247.72 268.67 241 275.39 241 283.68C241 296.9 241 363 241 481.98C190.85 481.98 162.99 481.98 157.42 481.98C116.47 481.98 82.4 451.21 78.16 410.4C75.13 381.17 50.87 147.34 47.84 118.11C45.51 95.64 52.84 73.13 67.95 56.36C83.03 39.62 104.59 30.02 127.1 30.02C152.88 30.02 359.12 30.02 384.9 30.02C407.41 30.02 428.97 39.62 444.05 56.36C459.16 73.13 466.49 95.64 464.16 118.11C458.09 176.57 436.87 381.17 433.84 410.4Z" id="a1eCJ3Ob9A"></path><path d="M256 59.63C207.12 59.63 161.16 78.69 126.59 113.32C120.74 119.18 120.74 128.68 126.59 134.54C132.7 140.66 181.61 189.65 187.72 195.77C190.53 198.59 194.35 200.17 198.33 200.17C202.31 200.17 206.13 198.59 208.94 195.77C221.51 183.18 238.23 176.24 256 176.24C273.77 176.24 290.49 183.18 303.06 195.77C305.87 198.59 309.69 200.17 313.67 200.17C317.65 200.17 321.47 198.59 324.28 195.77C330.39 189.65 379.3 140.66 385.41 134.54C391.26 128.68 391.26 119.18 385.41 113.32C350.84 78.69 304.89 59.63 256 59.63ZM312.86 164.74C300.46 155.65 286.18 149.74 271 147.38C271 145.63 271 131.65 271 129.9C271 121.61 264.28 114.89 256 114.89C247.72 114.89 241 121.61 241 129.9C241 131.65 241 145.63 241 147.38C225.82 149.74 211.54 155.66 199.14 164.74C195.12 160.71 162.94 128.47 158.92 124.44C186.22 101.9 220.17 89.65 256 89.65C291.83 89.65 325.78 101.9 353.09 124.44C345.04 132.5 320.9 156.68 312.86 164.74Z" id="ao1Qb04Us"></path><path d="M386.03 408.98C379.58 408.33 373.32 412.08 370.77 418.01C368.43 423.42 369.58 429.88 373.6 434.18C378.04 438.92 385.29 440.27 391.12 437.4C397.22 434.4 400.5 427.64 399.26 420.99C397.92 414.58 392.56 409.64 386.03 408.98Z" id="e8HSAl0pf"></path><path d="M326.02 408.98C319.58 408.33 313.32 412.08 310.77 418.01C308.43 423.42 309.57 429.88 313.6 434.18C318.04 438.92 325.28 440.27 331.12 437.4C337.22 434.4 340.5 427.64 339.26 420.99C337.92 414.58 332.56 409.64 326.02 408.98Z" id="ab7wXu0tC"></path><path d="M386.03 348.88C379.57 348.23 373.34 351.97 370.77 357.9C368.43 363.31 369.58 369.8 373.6 374.09C378.06 378.84 385.28 380.15 391.12 377.3C397.24 374.32 400.5 367.52 399.26 360.88C397.92 354.49 392.56 349.53 386.03 348.88Z" id="b3vGmTgjG"></path><path d="M326.39 348.92C320.02 348.11 313.74 351.64 311 357.4C308.52 362.61 309.32 368.92 312.97 373.37C316.98 378.25 323.86 380.08 329.77 377.88C336.65 375.31 340.59 368.05 339.26 360.88C337.94 354.6 332.78 349.74 326.39 348.92Z" id="c3AJKMeeuR"></path><path d="M386.75 288.87C380.56 287.94 374.26 291.12 371.33 296.65C368.38 302.2 369.23 309.12 373.43 313.79C377.63 318.46 384.5 319.96 390.29 317.57C396.87 314.85 400.56 307.73 399.26 300.78C397.95 294.63 393 289.82 386.75 288.87Z" id="fwXcc27c"></path><path d="M326.75 288.87C320.56 287.94 314.26 291.12 311.33 296.65C308.38 302.2 309.23 309.12 313.43 313.79C317.63 318.46 324.5 319.96 330.29 317.57C336.87 314.85 340.56 307.73 339.26 300.78C337.95 294.63 333 289.82 326.75 288.87Z" id="e9eprJqkDj"></path><path d="M189.29 409.02C182.97 408.23 176.6 411.71 173.9 417.5C171.24 423.24 172.41 430.22 176.98 434.66C181.57 439.12 188.67 440.19 194.35 437.23C200.26 434.16 203.38 427.5 202.17 420.99C200.86 414.72 195.68 409.82 189.29 409.02Z" id="g1IVKX0Wpa"></path><path d="M129.29 409.02C122.94 408.23 116.63 411.72 113.91 417.5C111.45 422.72 112.22 429.01 115.88 433.46C119.91 438.37 126.75 440.15 132.68 437.98C139.56 435.45 143.5 428.12 142.17 420.99C140.86 414.72 135.68 409.82 129.29 409.02Z" id="a3MotK1uEY"></path><path d="M189.29 348.92C182.96 348.12 176.6 351.63 173.9 357.4C171.45 362.63 172.22 368.91 175.88 373.37C179.89 378.26 186.76 380.07 192.68 377.88C199.56 375.33 203.5 368.04 202.17 360.88C200.85 354.6 195.68 349.73 189.29 348.92Z" id="bl0QGcKwe"></path><path d="M119.13 351.34C113.73 354.91 111.27 361.81 113.05 368C114.86 374.26 120.75 378.75 127.27 378.83C133.46 378.89 139.18 375.02 141.42 369.26C143.75 363.3 141.94 356.27 136.97 352.21C131.89 348.07 124.58 347.73 119.13 351.34Z" id="d2sVjZ6Tv3"></path><path d="M189.66 288.87C183.47 287.94 177.16 291.12 174.23 296.65C171.28 302.2 172.14 309.12 176.34 313.79C180.53 318.46 187.42 319.96 193.2 317.57C199.69 314.88 203.6 307.7 202.16 300.78C200.98 294.63 195.82 289.8 189.66 288.87Z" id="c2ppHZLRN7"></path><path d="M129.66 288.87C123.47 287.94 117.16 291.12 114.23 296.65C111.28 302.2 112.14 309.12 116.34 313.79C120.53 318.46 127.42 319.96 133.2 317.57C139.69 314.88 143.6 307.7 142.16 300.78C140.98 294.63 135.82 289.8 129.66 288.87Z" id="d4ihvXpoE"></path></defs><g><g><g><g><filter id="shadow16189028" x="-11.61" y="-28.45" width="536.23" height="569.89" filterUnits="userSpaceOnUse" primitiveUnits="userSpaceOnUse"><feFlood></feFlood><feComposite in2="SourceAlpha" operator="in"></feComposite><feGaussianBlur stdDeviation="1"></feGaussianBlur><feOffset dx="1" dy="1" result="afterOffset"></feOffset><feFlood flood-color="#000000" flood-opacity="0.5"></feFlood><feComposite in2="afterOffset" operator="in"></feComposite><feMorphology operator="dilate" radius="1"></feMorphology><feComposite in2="SourceAlpha" operator="out"></feComposite></filter><path d="M-2.61 -19.45L514.61 -19.45L514.61 531.45L-2.61 531.45L-2.61 -19.45Z" id="e1BHdYpFTh" fill="white" fill-opacity="1" filter="url(#shadow16189028)"></path></g><use xlink:href="#c7xPEXPsE" opacity="1" fill="#f6f51b" fill-opacity="1"></use><g><use xlink:href="#c7xPEXPsE" opacity="1" fill-opacity="0" stroke="#feab95" stroke-width="1" stroke-opacity="1"></use></g><g><filter id="shadow14418768" x="-11.61" y="-28.45" width="536.23" height="569.89" filterUnits="userSpaceOnUse" primitiveUnits="userSpaceOnUse"><feFlood></feFlood><feComposite in2="SourceAlpha" operator="out"></feComposite><feGaussianBlur stdDeviation="1"></feGaussianBlur><feOffset dx="1" dy="1" result="afterOffset"></feOffset><feFlood flood-color="#ffffff" flood-opacity="0.8"></feFlood><feComposite in2="afterOffset" operator="in"></feComposite><feMorphology operator="dilate" radius="1"></feMorphology><feComposite in2="SourceAlpha" operator="in"></feComposite></filter><path d="M-2.61 -19.45L514.61 -19.45L514.61 531.45L-2.61 531.45L-2.61 -19.45Z" id="c1ST4IwJpB" fill="white" fill-opacity="1" filter="url(#shadow14418768)"></path></g></g><g><use xlink:href="#a1eCJ3Ob9A" opacity="1" fill="#000000" fill-opacity="1"></use><g><use xlink:href="#a1eCJ3Ob9A" opacity="1" fill-opacity="0" stroke="#000000" stroke-width="1" stroke-opacity="0"></use></g></g><g><use xlink:href="#ao1Qb04Us" opacity="1" fill="#000000" fill-opacity="1"></use><g><use xlink:href="#ao1Qb04Us" opacity="1" fill-opacity="0" stroke="#000000" stroke-width="1" stroke-opacity="0"></use></g></g><g><use xlink:href="#e8HSAl0pf" opacity="1" fill="#000000" fill-opacity="1"></use><g><use xlink:href="#e8HSAl0pf" opacity="1" fill-opacity="0" stroke="#000000" stroke-width="1" stroke-opacity="0"></use></g></g><g><use xlink:href="#ab7wXu0tC" opacity="1" fill="#000000" fill-opacity="1"></use><g><use xlink:href="#ab7wXu0tC" opacity="1" fill-opacity="0" stroke="#000000" stroke-width="1" stroke-opacity="0"></use></g></g><g><use xlink:href="#b3vGmTgjG" opacity="1" fill="#000000" fill-opacity="1"></use><g><use xlink:href="#b3vGmTgjG" opacity="1" fill-opacity="0" stroke="#000000" stroke-width="1" stroke-opacity="0"></use></g></g><g><use xlink:href="#c3AJKMeeuR" opacity="1" fill="#000000" fill-opacity="1"></use><g><use xlink:href="#c3AJKMeeuR" opacity="1" fill-opacity="0" stroke="#000000" stroke-width="1" stroke-opacity="0"></use></g></g><g><use xlink:href="#fwXcc27c" opacity="1" fill="#000000" fill-opacity="1"></use><g><use xlink:href="#fwXcc27c" opacity="1" fill-opacity="0" stroke="#000000" stroke-width="1" stroke-opacity="0"></use></g></g><g><use xlink:href="#e9eprJqkDj" opacity="1" fill="#000000" fill-opacity="1"></use><g><use xlink:href="#e9eprJqkDj" opacity="1" fill-opacity="0" stroke="#000000" stroke-width="1" stroke-opacity="0"></use></g></g><g><use xlink:href="#g1IVKX0Wpa" opacity="1" fill="#000000" fill-opacity="1"></use><g><use xlink:href="#g1IVKX0Wpa" opacity="1" fill-opacity="0" stroke="#000000" stroke-width="1" stroke-opacity="0"></use></g></g><g><use xlink:href="#a3MotK1uEY" opacity="1" fill="#000000" fill-opacity="1"></use><g><use xlink:href="#a3MotK1uEY" opacity="1" fill-opacity="0" stroke="#000000" stroke-width="1" stroke-opacity="0"></use></g></g><g><use xlink:href="#bl0QGcKwe" opacity="1" fill="#000000" fill-opacity="1"></use><g><use xlink:href="#bl0QGcKwe" opacity="1" fill-opacity="0" stroke="#000000" stroke-width="1" stroke-opacity="0"></use></g></g><g><use xlink:href="#d2sVjZ6Tv3" opacity="1" fill="#000000" fill-opacity="1"></use><g><use xlink:href="#d2sVjZ6Tv3" opacity="1" fill-opacity="0" stroke="#000000" stroke-width="1" stroke-opacity="0"></use></g></g><g><use xlink:href="#c2ppHZLRN7" opacity="1" fill="#000000" fill-opacity="1"></use><g><use xlink:href="#c2ppHZLRN7" opacity="1" fill-opacity="0" stroke="#000000" stroke-width="1" stroke-opacity="0"></use></g></g><g><use xlink:href="#d4ihvXpoE" opacity="1" fill="#000000" fill-opacity="1"></use><g><use xlink:href="#d4ihvXpoE" opacity="1" fill-opacity="0" stroke="#000000" stroke-width="1" stroke-opacity="0"></use></g></g></g></g></svg>